<?xml version="1.0" ?><svg height="64px" version="1.1" viewBox="0 0 64 64" width="64px" xmlns="http://www.w3.org/2000/svg" xmlns:xlink="http://www.w3.org/1999/xlink"><title/><desc/><g fill="none" fill-rule="evenodd" id="Chat" stroke="none" stroke-width="1"><path d="M52,7.5 L10,7.5 C6.41014913,7.5 3.5,10.4101491 3.5,14 L3.5,43.5 L3.59403184,55.7595304 L21.493,43.5 L52,43.5 C55.5898509,43.5 58.5,40.5898509 58.5,37 L58.5,14 C58.5,10.4101491 55.5898509,7.5 52,7.5 Z M10,12.5 L52,12.5 C52.8284271,12.5 53.5,13.1715729 53.5,14 L53.5,37 C53.5,37.8284271 52.8284271,38.5 52,38.5 L19.9469917,38.5 L8.593,46.275 L8.59282523,38.5 L8.5,38.5 L8.5,14 C8.5,13.1715729 9.17157288,12.5 10,12.5 Z" fill="#000000" fill-rule="nonzero" id="Combined-Shape"/></g></svg>